<svg xmlns="http://www.w3.org/2000/svg" viewBox="0 0 512 440" fill="#ffffff">
  <!-- DeepSeek Whale - White on transparent background -->
  <path d="M385.6 45.8c-8.3 4.8-15.7 11.9-21.5 20.6l-18.5 28c-3.2 4.8-9.8 5.8-14.2 2.1l-22.8-19.2c-10.5-8.8-25.8-8.8-36.3 0L249.5 96.5c-4.4 3.7-11 2.7-14.2-2.1l-18.5-28c-5.8-8.7-13.2-15.8-21.5-20.6C156.8 26.2 108.6 32.5 74.2 64.5 34.2 101.7 16.8 158.2 27.2 211.8c3.8 19.2 12.2 37.1 24.4 52.2 4.8 5.9 4.2 14.6-1.3 19.8-23.8 22.4-39.2 53.2-42.2 87.8-3.2 36.6 8.2 72.8 32 99.8 23.8 27 58.2 42.5 94.8 42.5h98.2c36.6 0 71-15.5 94.8-42.5 23.8-27 35.2-63.2 32-99.8-3-34.6-18.4-65.4-42.2-87.8-5.5-5.2-6.1-13.9-1.3-19.8 12.2-15.1 20.6-33 24.4-52.2 10.4-53.6-7-110.1-47-147.3-34.4-32-82.6-38.3-121-18.7z"/>
  <!-- Whale eye -->
  <ellipse cx="298" cy="165" rx="18" ry="22" fill="none" stroke="#ffffff" stroke-width="8"/>
  <circle cx="304" cy="158" r="7" fill="#ffffff"/>
  <!-- Whale tail -->
  <path d="M420 62c-12-8-28-6-38 4l-30 28c-6 5.5-6 14.5 0 20l30 28c10 10 26 12 38 4 14-9.5 17-28.5 6-41l-22-31c-5-7-5-16.5 0-23.5l22-31c11-12.5 8-31.5-6-41z"/>
  <!-- Water splash detail -->
  <path d="M365 95c-4 3-9 2.5-12-1-3-3.5-2.5-8 1-11 4-3 9-2.5 12 1 3 3.5 2.5 8-1 11z" fill-opacity="0.7"/>
</svg>
