<svg xmlns="http://www.w3.org/2000/svg" viewBox="0 0 512 400" fill="none">
  <defs>
    <linearGradient id="gradL" x1="0%" y1="0%" x2="100%" y2="100%">
      <stop offset="0%" style="stop-color:#a674ff"/>
      <stop offset="50%" style="stop-color:#4f8cff"/>
      <stop offset="100%" style="stop-color:#3ad7e0"/>
    </linearGradient>
    <linearGradient id="gradB" x1="0%" y1="0%" x2="100%" y2="100%">
      <stop offset="0%" style="stop-color:#f5d142"/>
      <stop offset="50%" style="stop-color:#ff9e57"/>
      <stop offset="100%" style="stop-color:#ff6ba6"/>
    </linearGradient>
  </defs>

  <!-- L - Purple to Cyan gradient -->
  <path d="M95 45 L95 255 Q95 275 115 275 L175 275 Q190 275 190 260 L190 230 Q190 215 175 215 L140 215 L140 55 Q140 40 125 40 L110 40 Q95 40 95 55Z" fill="url(#gradL)"/>

  <!-- i - White -->
  <circle cx="256" cy="58" r="22" fill="#ffffff"/>
  <path d="M233 105 L233 260 Q233 280 253 280 L259 280 Q279 280 279 260 L279 105 Q279 90 264 90 L248 90 Q233 90 233 105Z" fill="#ffffff"/>

  <!-- B - Yellow-Orange-Pink gradient -->
  <path d="M315 50 L380 50 Q420 50 420 92 Q420 120 395 130 Q430 140 430 182 Q430 230 385 230 L320 230 Q305 230 305 215 L305 65 Q305 50 315 50Z M345 80 L345 115 L375 115 Q390 115 390 97 Q390 80 375 80 Z M345 145 L345 200 L380 200 Q400 200 400 172 Q400 145 378 145Z" fill="url(#gradB)"/>

  <!-- 灵伴 text below -->
  <text x="256" y="320" text-anchor="middle" font-family="'Noto Sans SC', sans-serif" font-size="36" font-weight="700">
    <tspan fill="#a674ff">灵</tspan>
    <tspan fill="#ff6ba6">伴</tspan>
  </text>
  <text x="256" y="358" text-anchor="middle" font-family="'Noto Sans SC', sans-serif" font-size="16" font-weight="400" letter-spacing="12">
    <tspan fill="#4f8cff">伴</tspan>
    <tspan fill="#ffffff">您</tspan>
    <tspan fill="#f5d142">左</tspan>
    <tspan fill="#ff9e57">右</tspan>
  </text>
</svg>
